<?xml version="1.0" encoding="UTF-8" standalone="no"?>
<svg
   xmlns:dc="http://purl.org/dc/elements/1.1/"
   xmlns:cc="http://creativecommons.org/ns#"
   xmlns:rdf="http://www.w3.org/1999/02/22-rdf-syntax-ns#"
   xmlns:svg="http://www.w3.org/2000/svg"
   xmlns="http://www.w3.org/2000/svg"
   version="1.1"
   id="svg8141"
   viewBox="0 0 377.15353 617.03544"
   height="174.14111mm"
   width="106.44111mm">
  <defs
     id="defs8143">
    <pattern
       id="EMFhbasepattern"
       patternUnits="userSpaceOnUse"
       width="6"
       height="6"
       x="0"
       y="0" />
  </defs>
  <metadata
     id="metadata8146">
    <rdf:RDF>
      <cc:Work
         rdf:about="">
        <dc:format>image/svg+xml</dc:format>
        <dc:type
           rdf:resource="http://purl.org/dc/dcmitype/StillImage" />
        <dc:title></dc:title>
      </cc:Work>
    </rdf:RDF>
  </metadata>
  <g
     id="layer1">
    <g
       transform="translate(-233.70459,-256.27447)"
       id="g8394">
      <rect
         style="fill:#646464;fill-opacity:1;stroke:#000000;stroke-width:0.5;stroke-linecap:round;stroke-linejoin:round;stroke-miterlimit:4;stroke-dasharray:none;stroke-opacity:1"
         id="rect12621-4"
         width="376.65353"
         height="132.38925"
         x="233.95459"
         y="256.52444"
         rx="3.5433071"
         ry="3.5433071" />
      <rect
         style="fill:#646464;fill-opacity:1;stroke:#000000;stroke-width:0.5;stroke-linecap:round;stroke-linejoin:round;stroke-miterlimit:4;stroke-dasharray:none;stroke-opacity:1"
         id="rect12621"
         width="376.65353"
         height="480.66995"
         x="233.95459"
         y="392.38995"
         rx="3.5433071"
         ry="3.5433071" />
      <rect
         style="fill:#464646;fill-opacity:1;stroke:#000000;stroke-width:0.49999997;stroke-linecap:round;stroke-linejoin:round;stroke-miterlimit:4;stroke-dasharray:none;stroke-opacity:1"
         id="rect8110"
         width="371.54721"
         height="3.5433071"
         x="236.50775"
         y="388.91125" />
      <rect
         style="fill:#464646;fill-opacity:1;stroke:#000000;stroke-width:0.49999997;stroke-linecap:round;stroke-linejoin:round;stroke-miterlimit:4;stroke-dasharray:none;stroke-opacity:1"
         id="rect12710"
         width="282.96457"
         height="419.3819"
         x="280.79907"
         y="408.23996"
         rx="10.629899"
         ry="10.6299" />
      <g
         id="g8189"
         transform="translate(305.08943,3.844696)">
        <rect
           rx="7.0866141"
           ry="7.0866141"
           y="414.56754"
           x="54.698246"
           height="59.436222"
           width="124.9874"
           id="rect4771"
           style="fill:#ffffff;fill-opacity:1;stroke:#333333;stroke-width:0.80000013;stroke-miterlimit:4;stroke-dasharray:none;stroke-opacity:1" />
        <path
           style="fill:#1a1a1a;stroke:none"
           d="m 73.403491,467.31714 43.788459,-46.06299 43.78845,46.06299 z"
           id="path4707" />
      </g>
      <g
         id="g8177"
         transform="translate(-197.49254,132.57236)">
        <rect
           style="fill:#ffffff;fill-opacity:1;stroke:#333333;stroke-width:0.80000013;stroke-miterlimit:4;stroke-dasharray:none;stroke-opacity:1"
           id="rect4889"
           width="59.436222"
           height="124.9874"
           x="691.04004"
           y="355.38031"
           ry="7.0866141"
           rx="7.0866141" />
        <path
           style="fill:#1a1a1a;stroke:none"
           d="m 717.16331,471.26424 c 0,0 18.58867,-32.43751 11.39505,-80.25309 l 8.67603,-2.69955 -29.35566,-23.82783 -1.79842,34.84448 10.34179,-3.57339 c 6.96732,42.93532 -12.14018,69.88793 -12.14018,69.88793 l 12.88139,5.62145 z"
           id="path4729" />
      </g>
      <g
         id="g8193"
         transform="translate(343.2732,44.980225)">
        <rect
           style="fill:#ffffff;fill-opacity:1;stroke:#333333;stroke-width:0.80000013;stroke-miterlimit:4;stroke-dasharray:none;stroke-opacity:1"
           id="rect4891"
           width="124.9874"
           height="59.436222"
           x="16.514475"
           y="577.85486"
           ry="7.0866141"
           rx="7.0866141" />
        <path
           style="fill:#1a1a1a;stroke:none"
           d="M 122.79664,584.54147 79.008165,630.60446 35.219708,584.54147 Z"
           id="path4696" />
      </g>
      <g
         id="g8181"
         transform="translate(-564.92404,20.903814)">
        <rect
           rx="7.0866141"
           ry="7.0866141"
           y="467.04886"
           x="856.50305"
           height="124.9874"
           width="59.436222"
           id="rect4893"
           style="fill:#ffffff;fill-opacity:1;stroke:#333333;stroke-width:0.80000013;stroke-miterlimit:4;stroke-dasharray:none;stroke-opacity:1" />
        <path
           style="fill:#1a1a1a;stroke:none"
           d="m 889.81602,476.15232 c 0,0 -18.58867,32.43751 -11.39507,80.2531 l -8.67602,2.69955 29.35566,23.82782 1.7984,-34.84448 -10.34177,3.57339 c -6.96734,-42.93533 12.14018,-69.88792 12.14018,-69.88792 l -12.88138,-5.62146 z"
           id="path4740" />
      </g>
      <g
         id="g4255"
         transform="matrix(1.0762794,0,0,1.0762794,223.67662,323.66749)">
        <rect
           rx="6.584363"
           ry="6.584363"
           y="342.66031"
           x="63.089931"
           height="116.12914"
           width="116.12914"
           id="rect4895"
           style="fill:#ffffff;fill-opacity:1;stroke:#333333;stroke-width:0.74330151;stroke-miterlimit:4;stroke-dasharray:none;stroke-opacity:1" />
        <path
           style="fill:#ff0000;stroke:none"
           d="m 169.85413,430.82266 c 0,0 0,0 0,0 l -30.09779,-30.09778 30.09779,-30.09778 c 0,0 0,0 0,0 0.32553,-0.32554 0.55805,-0.70377 0.70997,-1.10682 0.41234,-1.10371 0.17672,-2.39033 -0.70997,-3.27702 l -14.21801,-14.21801 c -0.88669,-0.88669 -2.17641,-1.11921 -3.27702,-0.70997 -0.40305,0.14882 -0.78128,0.38444 -1.10682,0.70687 0,0 0,0 0,0 L 121.1545,382.11994 91.056724,352.02215 c 0,0 0,0 0,0 -0.325536,-0.32243 -0.703775,-0.55805 -1.106809,-0.70687 -1.103718,-0.41234 -2.390339,-0.17672 -3.277026,0.70997 l -14.218016,14.21801 c -0.886687,0.88669 -1.119212,2.17641 -0.709966,3.27702 0.151916,0.40305 0.38444,0.78128 0.709966,1.10682 0,0 0,0 0,0 l 30.097787,30.09778 -30.097787,30.09778 c 0,0 0,0 0,0 -0.322425,0.32553 -0.55805,0.70377 -0.709966,1.10681 -0.412347,1.10061 -0.176721,2.39034 0.709966,3.27702 l 14.218016,14.21802 c 0.886687,0.88669 2.176408,1.11921 3.277026,0.70996 0.403034,-0.15191 0.781273,-0.38444 1.106809,-0.70996 0,0 0,0 0,0 l 30.097776,-30.09779 30.09778,30.09779 c 0,0 0,0 0,0 0.32554,0.32552 0.70377,0.55805 1.10682,0.70996 1.10371,0.41235 2.39033,0.17673 3.27702,-0.70996 l 14.21801,-14.21802 c 0.88669,-0.88668 1.12231,-2.17641 0.70997,-3.27702 -0.15192,-0.40304 -0.38444,-0.78128 -0.70997,-1.10681 z"
           id="path4762" />
      </g>
      <g
         id="g4259"
         transform="matrix(1.0762794,0,0,1.0762794,219.88802,323.05629)">
        <rect
           style="fill:#ffffff;fill-opacity:1;stroke:#333333;stroke-width:0.74330151;stroke-miterlimit:4;stroke-dasharray:none;stroke-opacity:1"
           id="rect4897"
           width="116.12914"
           height="116.12914"
           x="193.35899"
           y="342.66031"
           ry="6.584363"
           rx="6.584363" />
        <path
           style="fill:#00ff00;fill-opacity:1;stroke:none"
           d="m 285.52789,361.96996 -46.50591,46.50591 -21.70275,-21.70276 -15.50197,15.50197 37.20472,37.20472 62.00788,-62.00788 z"
           id="path4751" />
      </g>
      <rect
         rx="7.0866141"
         ry="7.0866141"
         y="622.83508"
         x="291.57901"
         height="59.436222"
         width="59.436222"
         id="rect4771-3-1"
         style="fill:#646464;fill-opacity:1;stroke:#333333;stroke-width:0.80000013;stroke-miterlimit:4;stroke-dasharray:none;stroke-opacity:1" />
      <g
         id="g8271"
         transform="translate(-352.35991,-254.98123)">
        <rect
           rx="7.0866141"
           ry="7.0866141"
           y="742.9339"
           x="712.14758"
           height="124.9874"
           width="124.9874"
           id="rect4895-8"
           style="fill:#ffffff;fill-opacity:1;stroke:#333333;stroke-width:0.80000013;stroke-miterlimit:4;stroke-dasharray:none;stroke-opacity:1" />
        <path
           style="fill:#000000;fill-opacity:1;fill-rule:nonzero;stroke:none"
           d="m 740.97987,771.76618 67.32283,0 0,67.32283 -67.32283,0 z"
           id="path8263" />
      </g>
      <rect
         rx="7.0866141"
         ry="7.0866141"
         y="418.41223"
         x="291.57901"
         height="59.436222"
         width="59.436222"
         id="rect4771-3-1-9"
         style="fill:#646464;fill-opacity:1;stroke:#333333;stroke-width:0.80000013;stroke-miterlimit:4;stroke-dasharray:none;stroke-opacity:1" />
      <rect
         rx="7.0866141"
         ry="7.0866141"
         y="622.83508"
         x="493.54752"
         height="59.436222"
         width="59.436222"
         id="rect4771-3-1-91"
         style="fill:#646464;fill-opacity:1;stroke:#333333;stroke-width:0.80000013;stroke-miterlimit:4;stroke-dasharray:none;stroke-opacity:1" />
      <rect
         rx="7.0866141"
         ry="7.0866141"
         y="418.41223"
         x="493.54752"
         height="59.436222"
         width="59.436222"
         id="rect4771-3-1-0"
         style="fill:#646464;fill-opacity:1;stroke:#333333;stroke-width:0.80000013;stroke-miterlimit:4;stroke-dasharray:none;stroke-opacity:1" />
    </g>
    <rect
       style="fill:#464646;fill-opacity:0.39215686;stroke:#333333;stroke-width:0.80000013;stroke-miterlimit:4;stroke-dasharray:none;stroke-opacity:1"
       id="rect4771-3"
       width="124.9874"
       height="59.436222"
       x="126.0831"
       y="366.56061"
       ry="7.0866141"
       rx="7.0866141" />
    <rect
       style="fill:#464646;fill-opacity:0.39215686;stroke:#333333;stroke-width:0.80000013;stroke-miterlimit:4;stroke-dasharray:none;stroke-opacity:1"
       id="rect4771-3-18"
       width="59.436222"
       height="124.9874"
       x="259.8429"
       y="231.67819"
       ry="7.0866141"
       rx="7.0866141" />
    <rect
       style="fill:#464646;fill-opacity:0.39215686;stroke:#333333;stroke-width:0.80000013;stroke-miterlimit:4;stroke-dasharray:none;stroke-opacity:1"
       id="rect4771-3-9"
       width="124.9874"
       height="124.9874"
       x="57.87442"
       y="436.19122"
       ry="7.0866141"
       rx="7.0866141" />
    <rect
       style="fill:#464646;fill-opacity:0.39215686;stroke:#333333;stroke-width:0.80000013;stroke-miterlimit:4;stroke-dasharray:none;stroke-opacity:1"
       id="rect4771-3-13"
       width="124.9874"
       height="59.436222"
       x="126.0831"
       y="162.13776"
       ry="7.0866141"
       rx="7.0866141" />
    <rect
       style="fill:#464646;fill-opacity:0.39215686;stroke:#333333;stroke-width:0.80000013;stroke-miterlimit:4;stroke-dasharray:none;stroke-opacity:1"
       id="rect4771-3-18-6"
       width="59.436222"
       height="124.9874"
       x="57.87442"
       y="231.67819"
       ry="7.0866141"
       rx="7.0866141" />
    <rect
       style="fill:#464646;fill-opacity:0.39215686;stroke:#333333;stroke-width:0.80000013;stroke-miterlimit:4;stroke-dasharray:none;stroke-opacity:1"
       id="rect4771-3-9-2"
       width="124.9874"
       height="124.9874"
       x="194.29175"
       y="435.58008"
       ry="7.0866141"
       rx="7.0866141" />
    <rect
       style="fill:#464646;fill-opacity:0.39215686;stroke:#333333;stroke-width:0.80000013;stroke-miterlimit:4;stroke-dasharray:none;stroke-opacity:1"
       id="rect4771-3-9-4"
       width="124.9874"
       height="124.9874"
       x="126.08307"
       y="231.67819"
       ry="7.0866141"
       rx="7.0866141" />
  </g>
</svg>
