<?xml version="1.0" encoding="UTF-8" standalone="no"?>
<svg
   xmlns:dc="http://purl.org/dc/elements/1.1/"
   xmlns:cc="http://creativecommons.org/ns#"
   xmlns:rdf="http://www.w3.org/1999/02/22-rdf-syntax-ns#"
   xmlns:svg="http://www.w3.org/2000/svg"
   xmlns="http://www.w3.org/2000/svg"
   version="1.1"
   id="svg4146"
   viewBox="0 0 243.19818 355.16471"
   height="100.23537mm"
   width="68.635933mm">
  <defs
     id="defs4148" />
  <metadata
     id="metadata4151">
    <rdf:RDF>
      <cc:Work
         rdf:about="">
        <dc:format>image/svg+xml</dc:format>
        <dc:type
           rdf:resource="http://purl.org/dc/dcmitype/StillImage" />
        <dc:title></dc:title>
      </cc:Work>
    </rdf:RDF>
  </metadata>
  <g
     id="layer1">
    <g
       id="g4637">
      <rect
         on-tap="handleOpen"
         rx="7.0866141"
         ry="7.0866137"
         y="0.40001222"
         x="63.53455"
         height="47.034645"
         width="116.12914"
         id="rect4889-0"
         style="fill:#ffffff;fill-opacity:1;stroke:#333333;stroke-width:0.80000007;stroke-miterlimit:4;stroke-dasharray:none;stroke-opacity:1" />
      <path
         id="path4707-8"
         d="M 87.91569,41.63387 121.59911,6.200799 155.28253,41.63387 Z"
         style="fill:#1a1a1a;stroke:none" />
    </g>
    <g
       id="g4661">
      <rect
         on-tap="handleClose"
         rx="7.0866141"
         ry="7.0866137"
         y="181.27412"
         x="63.53455"
         height="47.034645"
         width="116.12914"
         id="rect4889-0-9"
         style="fill:#ffffff;fill-opacity:1;stroke:#333333;stroke-width:0.80000007;stroke-miterlimit:4;stroke-dasharray:none;stroke-opacity:1" />
      <path
         id="path4696-8"
         d="M 155.28254,187.07492 121.59909,222.50799 87.91567,187.07492 Z"
         style="fill:#000000;stroke:none" />
    </g>
    <g
       id="g4649">
      <rect
         style="fill:#ffffff;fill-opacity:1;stroke:#333333;stroke-width:0.80000007;stroke-miterlimit:4;stroke-dasharray:none;stroke-opacity:1"
         id="rect4771-2"
         width="116.12914"
         height="116.12914"
         x="63.534519"
         y="56.303036"
         ry="7.0866141"
         rx="7.0866141" />
      <rect
         on-tap="handleStop"
         class="text programming_mode"
         style="opacity:1;fill:#000000;fill-opacity:1;stroke:none;stroke-width:0.08;stroke-linecap:butt;stroke-linejoin:miter;stroke-miterlimit:4;stroke-dasharray:none;stroke-dashoffset:0;stroke-opacity:1"
         id="text_stop"
         width="50.77195"
         height="52.182285"
         x="96.213104"
         y="88.276466" />
    </g>
    <g
       id="g4655">
      <rect
         on-tap="handleTiltup"
         on-tap="handleTiltup"=""
         style="fill:none;fill-opacity:1;stroke:#333333;stroke-width:0.80000013;stroke-miterlimit:4;stroke-dasharray:none;stroke-opacity:1"
         id="rect4889-0-0"
         width="47.034645"
         height="116.12914"
         x="188.43051"
         y="56.303036"
         ry="7.0866137"
         rx="7.0866137" />
      <path
         id="path4729-2"
         d="m 208.60778,163.9739 c 0,0 17.27123,-30.13856 10.58745,-74.5653 l 8.06113,-2.50822 -27.27513,-22.13908 -1.67096,32.37494 9.60883,-3.32013 c 6.47353,39.89236 -11.27976,64.93475 -11.27976,64.93475 l 11.96844,5.22304 z"
         style="fill:#1a1a1a;stroke:none" />
    </g>
    <g
       id="g4643">
      <rect
         on-tap="handleTiltdown"
         style="fill:#ffffff;fill-opacity:1;stroke:#333333;stroke-width:0.80000013;stroke-miterlimit:4;stroke-dasharray:none;stroke-opacity:1"
         id="rect4889-0-0-8"
         width="47.034645"
         height="116.12914"
         x="8.01581"
         y="56.303036"
         ry="7.0866137"
         rx="7.0866137" />
      <path
         id="path4740-5"
         d="m 34.87319,64.76131 c 0,0 -17.27123,30.13856 -10.58746,74.56531 l -8.06112,2.50822 27.27513,22.13907 1.67094,-32.37494 -9.60882,3.32013 C 29.08832,95.02674 46.84163,69.98436 46.84163,69.98436 L 34.87319,64.76131 Z"
         style="fill:#1a1a1a;stroke:none" />
    </g>
    <g
       id="g4667">
      <rect
         on-tap="handleCancel"
         style="fill:#ffffff;fill-opacity:1;stroke:#333333;stroke-width:0.80000007;stroke-miterlimit:4;stroke-dasharray:none;stroke-opacity:1"
         id="rect4895-5"
         width="116.12914"
         height="116.12914"
         x="0.39999598"
         y="238.63557"
         ry="7.0866141"
         rx="7.0866141" />
      <path
         id="path4762-2"
         d="m 107.1642,326.79791 c 0,0 0,0 0,0 L 77.06641,296.70013 107.1642,266.60235 c 0,0 0,0 0,0 0.32553,-0.32554 0.55805,-0.70377 0.70997,-1.10682 0.41234,-1.10371 0.17672,-2.39033 -0.70997,-3.27702 L 92.94619,248.0005 c -0.88669,-0.88669 -2.17641,-1.11921 -3.27702,-0.70997 -0.40305,0.14882 -0.78128,0.38444 -1.10682,0.70687 0,0 0,0 0,0 L 58.46457,278.09519 28.36679,247.9974 c 0,0 0,0 0,0 -0.32553,-0.32243 -0.70377,-0.55805 -1.10681,-0.70687 -1.10371,-0.41234 -2.39033,-0.17672 -3.27702,0.70997 L 9.76494,262.21851 c -0.88668,0.88669 -1.11921,2.17641 -0.70996,3.27702 0.15191,0.40305 0.38444,0.78128 0.70996,1.10682 0,0 0,0 0,0 l 30.09779,30.09778 -30.09779,30.09778 c 0,0 0,0 0,0 -0.32242,0.32553 -0.55805,0.70377 -0.70996,1.10681 -0.41235,1.10061 -0.17672,2.39034 0.70996,3.27702 l 14.21802,14.21802 c 0.88669,0.88669 2.17641,1.11921 3.27702,0.70996 0.40304,-0.15191 0.78128,-0.38444 1.10681,-0.70996 0,0 0,0 0,0 l 30.09778,-30.09779 30.09778,30.09779 c 0,0 0,0 0,0 0.32554,0.32552 0.70377,0.55805 1.10682,0.70996 1.10371,0.41235 2.39033,0.17673 3.27702,-0.70996 l 14.21801,-14.21802 c 0.88669,-0.88668 1.12231,-2.17641 0.70997,-3.27702 -0.15192,-0.40304 -0.38444,-0.78128 -0.70997,-1.10681 z"
         style="fill:#ff0000;stroke:none" />
    </g>
    <g
       id="g4673">
      <rect
         on-tap="handleOk"
         rx="7.0866141"
         ry="7.0866141"
         y="238.63557"
         x="126.66904"
         height="116.12914"
         width="116.12914"
         id="rect4897-9"
         style="fill:#ffffff;fill-opacity:1;stroke:#333333;stroke-width:0.80000007;stroke-miterlimit:4;stroke-dasharray:none;stroke-opacity:1" />
      <path
         id="path4751-6"
         d="m 218.83796,257.94521 -46.50591,46.50591 -21.70275,-21.70276 -15.50197,15.50197 37.20472,37.20472 62.00788,-62.00788 z"
         style="fill:#00ff00;fill-opacity:1;stroke:none" />
    </g>
  </g>
</svg>
