<?xml version="1.0" encoding="UTF-8" standalone="no"?>
<!-- Created with Inkscape (http://www.inkscape.org/) -->

<svg
        xmlns:dc="http://purl.org/dc/elements/1.1/"
        xmlns:cc="http://creativecommons.org/ns#"
        xmlns:rdf="http://www.w3.org/1999/02/22-rdf-syntax-ns#"
        xmlns="http://www.w3.org/2000/svg"
        xmlns:sodipodi="http://sodipodi.sourceforge.net/DTD/sodipodi-0.dtd"
        xmlns:inkscape="http://www.inkscape.org/namespaces/inkscape"
        width="41.599998mm"
        height="41.599998mm"
        viewBox="0 0 147.40157 147.40157"
        id="svg2"
        version="1.1"
        inkscape:version="0.91 r13725"
        sodipodi:docname="remote.svg">
  <defs
     id="defs4">
    <marker
       inkscape:isstock="true"
       style="overflow:visible"
       id="marker4551"
       refX="0"
       refY="0"
       orient="auto"
       inkscape:stockid="DotL">
      <path
         transform="matrix(0.8,0,0,0.8,5.92,0.8)"
         style="fill:#000000;fill-opacity:1;fill-rule:evenodd;stroke:#000000;stroke-width:1pt;stroke-opacity:1"
         d="m -2.5,-1 c 0,2.76 -2.24,5 -5,5 -2.76,0 -5,-2.24 -5,-5 0,-2.76 2.24,-5 5,-5 2.76,0 5,2.24 5,5 z"
         id="path4553"
         inkscape:connector-curvature="0" />
    </marker>
    <marker
       inkscape:isstock="true"
       style="overflow:visible"
       id="marker4547"
       refX="0"
       refY="0"
       orient="auto"
       inkscape:stockid="DotL">
      <path
         transform="matrix(0.8,0,0,0.8,5.92,0.8)"
         style="fill:#000000;fill-opacity:1;fill-rule:evenodd;stroke:#000000;stroke-width:1pt;stroke-opacity:1"
         d="m -2.5,-1 c 0,2.76 -2.24,5 -5,5 -2.76,0 -5,-2.24 -5,-5 0,-2.76 2.24,-5 5,-5 2.76,0 5,2.24 5,5 z"
         id="path4549"
         inkscape:connector-curvature="0" />
    </marker>
  </defs>
  <sodipodi:namedview
     id="base"
     pagecolor="#ffffff"
     bordercolor="#666666"
     borderopacity="1.0"
     inkscape:pageopacity="0.0"
     inkscape:pageshadow="2"
     inkscape:zoom="5.6"
     inkscape:cx="71.090518"
     inkscape:cy="89.107088"
     inkscape:document-units="px"
     inkscape:current-layer="layer1"
     showgrid="false"
     inkscape:window-width="1920"
     inkscape:window-height="1027"
     inkscape:window-x="1912"
     inkscape:window-y="-8"
     inkscape:window-maximized="1"
     fit-margin-top="0"
     fit-margin-left="0"
     fit-margin-right="0"
     fit-margin-bottom="0" />
  <metadata
     id="metadata7">
    <rdf:RDF>
      <cc:Work
         rdf:about="">
        <dc:format>image/svg+xml</dc:format>
        <dc:type
           rdf:resource="http://purl.org/dc/dcmitype/StillImage" />
        <dc:title></dc:title>
      </cc:Work>
    </rdf:RDF>
  </metadata>
  <g
     inkscape:label="Layer 1"
     inkscape:groupmode="layer"
     id="layer1"
     transform="translate(-183.77924,-682.98496)">
    <circle
       inkscape:export-ydpi="150.062"
       inkscape:export-xdpi="150.062"
       inkscape:export-filename="C:\data\aptana\mencsite\docs\imgs\add_remote.png"
       style="opacity:1;fill:#ffffff;fill-opacity:1;stroke:none;stroke-width:0;stroke-linecap:butt;stroke-linejoin:miter;stroke-miterlimit:4;stroke-dasharray:none;stroke-dashoffset:0;stroke-opacity:1;marker-end:"
       id="circle5099"
       cx="258.08948"
       cy="757.00684"
       r="23.677031" />
    <path
       inkscape:export-ydpi="150.062"
       inkscape:export-xdpi="150.062"
       inkscape:export-filename="C:\data\aptana\mencsite\docs\imgs\add_remote.png"
       inkscape:connector-curvature="0"
       style="fill:#ffffff;fill-rule:evenodd;stroke:#4d4d4d;stroke-width:0.80000001;stroke-linecap:butt;stroke-linejoin:miter;stroke-miterlimit:4;stroke-dasharray:none;stroke-opacity:1;marker-end:"
       d="m 300.50559,731.84492 c -8.87477,-15.37155 -25.27602,-24.84082 -43.02556,-24.84082 -17.74955,0 -34.15079,9.46927 -43.02557,24.84082 l 23.27613,13.43848 c 4.07366,-7.05579 11.6021,-11.40234 19.74944,-11.40234 8.14733,0 15.67577,4.34655 19.74944,11.40234 l 23.27612,-13.43848"
       id="path5101" />
    <path
       inkscape:export-ydpi="150.062"
       inkscape:export-xdpi="150.062"
       inkscape:export-filename="C:\data\aptana\mencsite\docs\imgs\add_remote.png"
       inkscape:connector-curvature="0"
       id="path5103"
       d="m 220.82964,693.20541 c -11.14311,6.43347 -20.39643,15.68678 -26.82992,26.82988 l 20.4549,11.80938 c 4.36047,-7.55245 10.63212,-13.82407 18.18459,-18.18449 z"
       style="fill:#ffffff;fill-rule:evenodd;stroke:#4d4d4d;stroke-width:0.80000007;stroke-linecap:butt;stroke-linejoin:miter;stroke-miterlimit:4;stroke-dasharray:none;stroke-opacity:1;marker-end:" />
    <path
       inkscape:export-ydpi="150.062"
       inkscape:export-xdpi="150.062"
       inkscape:export-filename="C:\data\aptana\mencsite\docs\imgs\add_remote.png"
       inkscape:connector-curvature="0"
       style="fill:#ffffff;fill-rule:evenodd;stroke:#4d4d4d;stroke-width:0.80000007;stroke-linecap:butt;stroke-linejoin:miter;stroke-miterlimit:4;stroke-dasharray:none;stroke-opacity:1;marker-end:"
       d="m 257.48003,683.38496 c -12.86696,0 -25.50722,3.38695 -36.65034,9.82041 l 11.80979,20.45467 c 7.55249,-4.36038 16.1197,-6.65594 24.84055,-6.65594 z"
       id="path5105" />
    <path
       inkscape:export-ydpi="150.062"
       inkscape:export-xdpi="150.062"
       inkscape:export-filename="C:\data\aptana\mencsite\docs\imgs\add_remote.png"
       inkscape:connector-curvature="0"
       id="path5107"
       d="m 294.13042,693.20541 c -11.14311,-6.43348 -23.78338,-9.82044 -36.65033,-9.82045 l 2.4e-4,23.61915 c 8.72084,5e-5 17.28804,2.29565 24.84052,6.65607 z"
       style="fill:#ffffff;fill-rule:evenodd;stroke:#4d4d4d;stroke-width:0.80000007;stroke-linecap:butt;stroke-linejoin:miter;stroke-miterlimit:4;stroke-dasharray:none;stroke-opacity:1;marker-end:" />
    <path
       inkscape:export-ydpi="150.062"
       inkscape:export-xdpi="150.062"
       inkscape:export-filename="C:\data\aptana\mencsite\docs\imgs\add_remote.png"
       inkscape:connector-curvature="0"
       style="fill:#ffffff;fill-rule:evenodd;stroke:#4d4d4d;stroke-width:0.80000007;stroke-linecap:butt;stroke-linejoin:miter;stroke-miterlimit:4;stroke-dasharray:none;stroke-opacity:1;marker-end:"
       d="m 320.96036,720.03535 c -6.43347,-11.1431 -15.68678,-20.39643 -26.82988,-26.82992 l -11.80938,20.45491 c 7.55245,4.36046 13.82407,10.63211 18.18449,18.18458 z"
       id="path5109" />
    <path
       inkscape:export-ydpi="150.062"
       inkscape:export-xdpi="150.062"
       inkscape:export-filename="C:\data\aptana\mencsite\docs\imgs\add_remote.png"
       inkscape:connector-curvature="0"
       id="path5111"
       d="m 330.78081,756.68574 c 0,-12.86695 -3.38695,-25.50722 -9.8204,-36.65033 l -20.45468,11.80978 c 4.36038,7.55249 6.65593,16.11971 6.65594,24.84055 z"
       style="fill:#ffffff;fill-rule:evenodd;stroke:#4d4d4d;stroke-width:0.80000007;stroke-linecap:butt;stroke-linejoin:miter;stroke-miterlimit:4;stroke-dasharray:none;stroke-opacity:1;marker-end:" />
    <path
       inkscape:export-ydpi="150.062"
       inkscape:export-xdpi="150.062"
       inkscape:export-filename="C:\data\aptana\mencsite\docs\imgs\add_remote.png"
       inkscape:connector-curvature="0"
       id="path5113"
       d="m 184.17925,756.68574 c 0,12.86695 3.38694,25.50723 9.82041,36.65034 l 20.45466,-11.80978 c -4.36038,-7.5525 -6.65593,-16.11972 -6.65593,-24.84056 z"
       style="fill:#ffffff;fill-rule:evenodd;stroke:#4d4d4d;stroke-width:0.80000007;stroke-linecap:butt;stroke-linejoin:miter;stroke-miterlimit:4;stroke-dasharray:none;stroke-opacity:1;marker-end:" />
    <path
       inkscape:export-ydpi="150.062"
       inkscape:export-xdpi="150.062"
       inkscape:export-filename="C:\data\aptana\mencsite\docs\imgs\add_remote.png"
       inkscape:connector-curvature="0"
       style="fill:#ffffff;fill-rule:evenodd;stroke:#4d4d4d;stroke-width:0.80000007;stroke-linecap:butt;stroke-linejoin:miter;stroke-miterlimit:4;stroke-dasharray:none;stroke-opacity:1;marker-end:"
       d="m 320.96036,793.33614 c 6.43348,-11.14311 9.82044,-23.78338 9.82045,-36.65033 l -23.61915,2.3e-4 c -5e-5,8.72085 -2.29565,17.28805 -6.65606,24.84052 z"
       id="path5115" />
    <path
       inkscape:export-ydpi="150.062"
       inkscape:export-xdpi="150.062"
       inkscape:export-filename="C:\data\aptana\mencsite\docs\imgs\add_remote.png"
       inkscape:connector-curvature="0"
       style="fill:#ffffff;fill-opacity:1;stroke:#4d4d4d;stroke-width:0.80000007;stroke-miterlimit:4;stroke-dasharray:none;stroke-opacity:1;marker-end:"
       d="m 237.77215,745.28343 -23.31769,-13.43851 c -8.87476,15.37156 -8.87476,34.31009 -7e-5,49.68151 L 237.767,768.07905 c -4.05994,-7.04676 -4.05994,-15.73984 0.005,-22.79562 z"
       id="path5117" />
    <path
       inkscape:export-ydpi="150.062"
       inkscape:export-xdpi="150.062"
       inkscape:export-filename="C:\data\aptana\mencsite\docs\imgs\add_remote.png"
       inkscape:connector-curvature="0"
       id="path5119"
       d="m 277.1879,768.08806 23.31769,13.4385 c 8.87477,-15.37155 8.87477,-34.31008 7e-5,-49.6815 l -23.31261,13.44738 c 4.05995,7.04676 4.05995,15.73984 -0.005,22.79562 z"
       style="fill:#ffffff;fill-opacity:1;stroke:#4d4d4d;stroke-width:0.80000007;stroke-miterlimit:4;stroke-dasharray:none;stroke-opacity:1;marker-end:" />
    <path
       inkscape:export-ydpi="150.062"
       inkscape:export-xdpi="150.062"
       inkscape:export-filename="C:\data\aptana\mencsite\docs\imgs\add_remote.png"
       inkscape:connector-curvature="0"
       style="fill:#ffffff;fill-opacity:1;stroke:#4d4d4d;stroke-width:0.80000007;stroke-miterlimit:4;stroke-dasharray:none;stroke-opacity:1;marker-end:"
       d="m 320.96037,793.33614 c -13.09393,22.67935 -37.29249,36.65039 -63.48034,36.65039 -26.18785,0 -50.38642,-13.97105 -63.48034,-36.65039 l 20.45477,-11.80958 c 8.87477,15.37156 25.27602,24.84083 43.02557,24.84083 17.74954,0 34.15079,-9.46926 43.02556,-24.84082 l 0,-10e-6 20.45477,11.80958 z"
       id="path5121" />
    <path
       inkscape:export-ydpi="150.062"
       inkscape:export-xdpi="150.062"
       inkscape:export-filename="C:\data\aptana\mencsite\docs\imgs\add_remote.png"
       inkscape:connector-curvature="0"
       id="path5123"
       d="m 214.45446,781.52656 c 8.87478,15.37156 25.27602,24.84082 43.02557,24.84082 17.74954,0 34.15079,-9.46926 43.02556,-24.84082 l -23.27612,-13.43848 c -4.07367,7.0558 -11.60211,11.40235 -19.74944,11.40235 -8.14734,0 -15.67578,-4.34655 -19.74944,-11.40235 l -23.27613,13.43848"
       style="fill:#ffffff;fill-rule:evenodd;stroke:#4d4d4d;stroke-width:0.80000007;stroke-linecap:butt;stroke-linejoin:miter;stroke-miterlimit:4;stroke-dasharray:none;stroke-opacity:1;marker-end:" />
    <path
       inkscape:export-ydpi="150.062"
       inkscape:export-xdpi="150.062"
       inkscape:export-filename="C:\data\aptana\mencsite\docs\imgs\add_remote.png"
       inkscape:connector-curvature="0"
       style="fill:#ffffff;fill-rule:evenodd;stroke:#4d4d4d;stroke-width:0.80000007;stroke-linecap:butt;stroke-linejoin:miter;stroke-miterlimit:4;stroke-dasharray:none;stroke-opacity:1;marker-end:"
       d="m 193.99969,720.03535 c -6.43347,11.14311 -9.82043,23.78338 -9.82045,36.65033 l 23.61916,-2.4e-4 c 4e-5,-8.72084 2.29565,-17.28804 6.65607,-24.84052 z"
       id="path5125" />
    <path
       inkscape:connector-curvature="0"
       style="fill:#333333;fill-rule:evenodd;stroke:none;stroke-width:0.07999999;stroke-linecap:butt;stroke-linejoin:miter;stroke-miterlimit:4;stroke-dasharray:none;stroke-opacity:1"
       d="m 319.94147,772.27282 c 0.13338,-0.21045 0.54041,-1.23865 0.0533,-2.23378 -0.75569,-1.44784 -2.90172,-1.46201 -3.66724,0.53992 -0.76551,-2.00193 -2.91154,-1.98776 -3.66723,-0.53992 -0.48707,0.99513 -0.08,2.02333 0.0534,2.23378 1.13269,1.65255 2.66037,1.42536 3.61388,3.2289 0.95351,-1.80354 2.48119,-1.57635 3.61389,-3.2289 z"
       id="path5129"
       class="text" />
    <path
       inkscape:connector-curvature="0"
       style="fill:#333333;fill-rule:evenodd;stroke:none;stroke-width:0.08;stroke-linecap:butt;stroke-linejoin:miter;stroke-miterlimit:4;stroke-dasharray:none;stroke-opacity:1"
       d="m 292.98585,762.0661 c 0,0 2.3827,-4.15767 1.46071,-10.28608 l 1.11176,-0.34575 -3.76252,-3.05413 -0.23049,4.46595 1.32538,-0.45781 c 0.89318,5.5032 -1.55589,8.95751 -1.55589,8.95751 l 1.65105,0.72031"
       id="path5131"
       class="text programming_mode" />
    <path
       id="path5135"
       style="font-style:normal;font-variant:normal;font-weight:normal;font-stretch:normal;font-size:medium;line-height:125%;font-family:Shruti;-inkscape-font-specification:Shruti;letter-spacing:0px;word-spacing:0px;fill:#333333;fill-opacity:1;stroke:none;stroke-width:1px;stroke-linecap:butt;stroke-linejoin:miter;stroke-opacity:1"
       d="m 196.60968,774.4899 0,-0.94906 -0.50679,0 q -1.58737,0 -1.58737,0.89682 0,0.32651 0.23455,0.50064 0.23873,0.17414 0.62825,0.17414 0.18009,0 0.356,-0.0435 0.1801,-0.0435 0.33926,-0.12189 0.16334,-0.0827 0.29737,-0.1959 0.13821,-0.11755 0.23873,-0.26121 z m 0,0.68784 q -0.5738,0.53547 -1.44078,0.53547 -0.29737,0 -0.55286,-0.0915 -0.25129,-0.0871 -0.43977,-0.24814 -0.18847,-0.16109 -0.29737,-0.38746 -0.1047,-0.22638 -0.1047,-0.505 0,-1.49759 2.47528,-1.49759 l 0.3602,0 q 0,-0.27426 -0.0168,-0.48759 -0.0168,-0.21331 -0.1089,-0.35697 -0.0921,-0.14803 -0.29318,-0.22204 -0.20104,-0.0784 -0.56542,-0.0784 -0.97169,0 -1.0052,0.72704 l -0.73714,0 q 0.0795,-1.32346 1.78422,-1.32346 0.38532,0 0.69526,0.0696 0.30993,0.0696 0.52354,0.2525 0.21779,0.18284 0.33506,0.49629 0.11728,0.31345 0.11728,0.79668 l 0,2.75138 -0.72877,0 0,-0.43099 z"
       inkscape:connector-curvature="0" />
    <path
       id="path5137"
       style="font-style:normal;font-variant:normal;font-weight:normal;font-stretch:normal;font-size:medium;line-height:125%;font-family:Shruti;-inkscape-font-specification:Shruti;letter-spacing:0px;word-spacing:0px;fill:#333333;fill-opacity:1;stroke:none;stroke-width:1px;stroke-linecap:butt;stroke-linejoin:miter;stroke-opacity:1"
       d="m 199.13942,775.60873 -0.72458,0 0,-5.89022 0.72458,0 0,5.89022 z"
       inkscape:connector-curvature="0" />
    <path
       id="path5139"
       style="font-style:normal;font-variant:normal;font-weight:normal;font-stretch:normal;font-size:medium;line-height:125%;font-family:Shruti;-inkscape-font-specification:Shruti;letter-spacing:0px;word-spacing:0px;fill:#333333;fill-opacity:1;stroke:none;stroke-width:1px;stroke-linecap:butt;stroke-linejoin:miter;stroke-opacity:1"
       d="m 200.94876,775.60873 -0.72457,0 0,-5.89022 0.72457,0 0,5.89022 z"
       inkscape:connector-curvature="0" />
    <path
       inkscape:connector-curvature="0"
       style="fill:#333333;fill-rule:evenodd;stroke:none;stroke-width:0;stroke-linecap:butt;stroke-linejoin:miter;stroke-miterlimit:4;stroke-dasharray:none;stroke-opacity:1"
       d="m 261.91716,793.38538 -4.43714,4.66763 -4.43713,-4.66763 z"
       id="path5141"
       class="text programming_mode" />
    <path
       inkscape:connector-curvature="0"
       id="path5143"
       d="m 253.04289,720.37431 4.43714,-4.66763 4.43713,4.66763 z"
       style="fill:#333333;fill-rule:evenodd;stroke:none;stroke-width:0;stroke-linecap:butt;stroke-linejoin:miter;stroke-miterlimit:4;stroke-dasharray:none;stroke-opacity:1"
       class="text text_ring2" />
    <rect
       y="754.43079"
       x="254.36829"
       height="6.3963914"
       width="6.2235155"
       id="rect5145"
       style="opacity:1;fill:#333333;fill-opacity:1;stroke:none;stroke-width:0.08;stroke-linecap:butt;stroke-linejoin:miter;stroke-miterlimit:4;stroke-dasharray:none;stroke-dashoffset:0;stroke-opacity:1"
       class="text programming_mode" />
    <path
       inkscape:connector-curvature="0"
       id="path5147"
       d="m 222.89627,749.47707 c 0,0 -2.3827,4.15767 -1.46071,10.28608 l -1.11176,0.34575 3.76252,3.05413 0.23049,-4.46595 -1.32538,0.45781 c -0.89318,-5.5032 1.55589,-8.95751 1.55589,-8.95751 l -1.65105,-0.72031"
       style="fill:#333333;fill-rule:evenodd;stroke:none;stroke-width:0.08;stroke-linecap:butt;stroke-linejoin:miter;stroke-miterlimit:4;stroke-dasharray:none;stroke-opacity:1"
       class="text" />
    <path
       id="path5151"
       style="font-style:normal;font-variant:normal;font-weight:normal;font-stretch:normal;font-size:medium;line-height:125%;font-family:Shruti;-inkscape-font-specification:Shruti;letter-spacing:0px;word-spacing:0px;fill:#333333;fill-opacity:1;stroke:none;stroke-width:1px;stroke-linecap:butt;stroke-linejoin:miter;stroke-opacity:1"
       d="m 249.91346,790.47785 q -0.46116,0 -0.84173,-0.16287 -0.37609,-0.16285 -0.6492,-0.47899 -0.26864,-0.31614 -0.42086,-0.77118 -0.14775,-0.45983 -0.14775,-1.049 0,-0.57957 0.14775,-1.03462 0.14775,-0.45984 0.41638,-0.77597 0.26864,-0.31613 0.64921,-0.479 0.38056,-0.16764 0.8462,-0.16764 0.35371,0 0.65368,0.10064 0.30446,0.0958 0.5328,0.2874 0.23282,0.1916 0.38056,0.47898 0.15223,0.28261 0.197,0.65144 l -0.80143,0 q -0.009,-0.21076 -0.0851,-0.37361 -0.0761,-0.16286 -0.20595,-0.26824 -0.12984,-0.11017 -0.30445,-0.16286 -0.17014,-0.0575 -0.36714,-0.0575 -0.27759,0 -0.51041,0.11495 -0.22834,0.11018 -0.39399,0.34009 -0.16567,0.22513 -0.25969,0.56522 -0.0895,0.33529 -0.0895,0.78075 0,0.44547 0.0895,0.78556 0.0941,0.33529 0.25969,0.5652 0.16565,0.22514 0.39399,0.34009 0.23282,0.11017 0.51041,0.11017 0.18804,0 0.35818,-0.0527 0.17013,-0.0526 0.29998,-0.15807 0.13431,-0.11016 0.21491,-0.26823 0.0806,-0.15806 0.0895,-0.37362 l 0.80143,0 q -0.0448,0.37362 -0.197,0.65622 -0.14774,0.28261 -0.38056,0.47421 -0.23282,0.18681 -0.53728,0.28261 -0.29997,0.10064 -0.6492,0.10064 z"
       inkscape:connector-curvature="0" />
    <path
       id="path5153"
       style="font-style:normal;font-variant:normal;font-weight:normal;font-stretch:normal;font-size:medium;line-height:125%;font-family:Shruti;-inkscape-font-specification:Shruti;letter-spacing:0px;word-spacing:0px;fill:#333333;fill-opacity:1;stroke:none;stroke-width:1px;stroke-linecap:butt;stroke-linejoin:miter;stroke-opacity:1"
       d="m 253.155,790.36288 -0.77457,0 0,-6.48078 0.77457,0 0,6.48078 z"
       inkscape:connector-curvature="0" />
    <path
       id="path5155"
       style="font-style:normal;font-variant:normal;font-weight:normal;font-stretch:normal;font-size:medium;line-height:125%;font-family:Shruti;-inkscape-font-specification:Shruti;letter-spacing:0px;word-spacing:0px;fill:#333333;fill-opacity:1;stroke:none;stroke-width:1px;stroke-linecap:butt;stroke-linejoin:miter;stroke-opacity:1"
       d="m 256.09207,785.55858 q 0.4746,0 0.85517,0.16764 0.38056,0.16766 0.6492,0.48379 0.26863,0.31613 0.4119,0.77118 0.14328,0.45505 0.14328,1.03462 0,0.58438 -0.14775,1.04421 -0.14775,0.45504 -0.41639,0.77118 -0.26863,0.31614 -0.64919,0.48378 -0.38058,0.16287 -0.84622,0.16287 -0.46114,0 -0.84172,-0.16287 -0.37609,-0.16285 -0.6492,-0.47899 -0.26863,-0.31614 -0.42087,-0.77118 -0.14774,-0.45983 -0.14774,-1.049 0,-0.57957 0.14774,-1.03462 0.14776,-0.45984 0.41639,-0.77597 0.26864,-0.31613 0.6492,-0.479 0.38057,-0.16764 0.8462,-0.16764 z m 0,4.25825 q 0.2776,0 0.50594,-0.11017 0.23281,-0.11495 0.394,-0.34009 0.16565,-0.22991 0.2552,-0.56521 0.0941,-0.34008 0.0941,-0.78555 0,-0.44546 -0.0941,-0.78075 -0.0895,-0.34009 -0.2552,-0.56522 -0.16119,-0.22991 -0.394,-0.34009 -0.22834,-0.11495 -0.50594,-0.11495 -0.27759,0 -0.51039,0.11495 -0.22835,0.11018 -0.39401,0.34009 -0.16565,0.22513 -0.25967,0.56522 -0.0895,0.33529 -0.0895,0.78075 0,0.44547 0.0895,0.78555 0.094,0.3353 0.25967,0.56521 0.16566,0.22514 0.39401,0.34009 0.2328,0.11017 0.51039,0.11017 z"
       inkscape:connector-curvature="0" />
    <path
       id="path5157"
       style="font-style:normal;font-variant:normal;font-weight:normal;font-stretch:normal;font-size:medium;line-height:125%;font-family:Shruti;-inkscape-font-specification:Shruti;letter-spacing:0px;word-spacing:0px;fill:#333333;fill-opacity:1;stroke:none;stroke-width:1px;stroke-linecap:butt;stroke-linejoin:miter;stroke-opacity:1"
       d="m 260.59173,790.47785 q -1.79091,0 -1.88941,-1.51363 l 0.788,0 q 0.005,0.85261 1.09245,0.85261 0.24178,0 0.42534,-0.0526 0.18805,-0.0575 0.30893,-0.15807 0.12536,-0.10064 0.18804,-0.23471 0.0672,-0.1389 0.0672,-0.30176 0,-0.16765 -0.0492,-0.26823 -0.0492,-0.10538 -0.18805,-0.18202 -0.13879,-0.0814 -0.38953,-0.15328 -0.24624,-0.0766 -0.64471,-0.1916 -0.38953,-0.10538 -0.6716,-0.20597 -0.28207,-0.10064 -0.46563,-0.24907 -0.1791,-0.14849 -0.26864,-0.36404 -0.0851,-0.21554 -0.0851,-0.54605 0,-0.2874 0.11193,-0.53169 0.11641,-0.24907 0.32684,-0.43108 0.21491,-0.18202 0.51488,-0.28261 0.30446,-0.10538 0.68055,-0.10538 1.72822,0 1.75508,1.31244 l -0.77009,0 q -0.0403,-0.65622 -0.92679,-0.65622 -0.197,0 -0.36714,0.0431 -0.16566,0.0383 -0.29102,0.11975 -0.12089,0.0766 -0.19252,0.19638 -0.0672,0.11497 -0.0672,0.26346 0,0.1389 0.0313,0.22991 0.0358,0.0863 0.1567,0.16285 0.12089,0.0719 0.35819,0.14849 0.24177,0.0766 0.65368,0.18202 0.39847,0.10064 0.69398,0.21076 0.29549,0.11017 0.48801,0.26824 0.19252,0.15807 0.28655,0.38798 0.0941,0.22513 0.0941,0.56043 0,0.31613 -0.12536,0.58915 -0.12089,0.27303 -0.34923,0.47421 -0.22834,0.19639 -0.55518,0.31134 -0.32237,0.11497 -0.72531,0.11497 z"
       inkscape:connector-curvature="0" />
    <path
       id="path5159"
       style="font-style:normal;font-variant:normal;font-weight:normal;font-stretch:normal;font-size:medium;line-height:125%;font-family:Shruti;-inkscape-font-specification:Shruti;letter-spacing:0px;word-spacing:0px;fill:#333333;fill-opacity:1;stroke:none;stroke-width:1px;stroke-linecap:butt;stroke-linejoin:miter;stroke-opacity:1"
       d="m 265.12719,790.47785 q -0.47906,0 -0.87307,-0.16287 -0.39399,-0.16764 -0.67606,-0.48378 -0.28207,-0.31614 -0.43878,-0.77118 -0.15222,-0.45983 -0.15222,-1.04421 0,-0.57478 0.14775,-1.02983 0.15223,-0.45505 0.42534,-0.77118 0.27311,-0.31613 0.6492,-0.48379 0.38056,-0.17243 0.83725,-0.17243 0.47459,0 0.85516,0.16764 0.38057,0.16766 0.64919,0.48379 0.26864,0.31613 0.41191,0.77118 0.14328,0.45505 0.14328,1.03462 l 0,0.20118 -3.30421,0 q 0.0269,0.40714 0.1343,0.70891 0.11194,0.30176 0.28656,0.49815 0.1746,0.19639 0.40295,0.29698 0.23281,0.0958 0.50145,0.0958 0.19252,0 0.38504,-0.0527 0.19252,-0.0575 0.34476,-0.16286 0.1567,-0.11016 0.25072,-0.26823 0.0985,-0.16286 0.10298,-0.36883 l 0.81934,0 q -0.0492,0.36404 -0.21491,0.64664 -0.16118,0.28261 -0.41191,0.47421 -0.25073,0.19159 -0.57757,0.29219 -0.32684,0.10064 -0.69845,0.10064 z m 1.15514,-2.91708 q -0.0492,-0.3353 -0.15671,-0.58437 -0.10746,-0.25387 -0.26863,-0.42151 -0.16119,-0.16765 -0.36714,-0.25387 -0.20596,-0.0863 -0.44325,-0.0863 -0.2373,0 -0.44325,0.0814 -0.20148,0.0814 -0.36266,0.24908 -0.16117,0.16764 -0.27311,0.42151 -0.11193,0.25386 -0.1567,0.59395 l 2.47145,0 z"
       inkscape:connector-curvature="0" />
    <path
       id="path5163"
       style="font-style:normal;font-variant:normal;font-weight:normal;font-stretch:normal;font-size:medium;line-height:125%;font-family:Shruti;-inkscape-font-specification:Shruti;letter-spacing:0px;word-spacing:0px;fill:#333333;fill-opacity:1;stroke:none;stroke-width:1px;stroke-linecap:butt;stroke-linejoin:miter;stroke-opacity:1"
       d="m 250.54698,723.13397 q 0.4746,0 0.85516,0.16764 0.38057,0.16764 0.64921,0.48379 0.26863,0.31613 0.41191,0.77117 0.14327,0.45504 0.14327,1.03463 0,0.58438 -0.14776,1.04421 -0.14775,0.45504 -0.41638,0.77117 -0.26863,0.31614 -0.6492,0.48379 -0.38057,0.16285 -0.84621,0.16285 -0.46115,0 -0.84172,-0.16285 -0.37609,-0.16286 -0.6492,-0.479 -0.26864,-0.31613 -0.42086,-0.77117 -0.14776,-0.45984 -0.14776,-1.049 0,-0.57959 0.14776,-1.03463 0.14775,-0.45983 0.41638,-0.77596 0.26863,-0.31614 0.6492,-0.479 0.38057,-0.16764 0.8462,-0.16764 z m 0,4.25824 q 0.27759,0 0.50593,-0.11016 0.23282,-0.11497 0.39401,-0.34009 0.16565,-0.22992 0.2552,-0.56521 0.094,-0.34008 0.094,-0.78555 0,-0.44546 -0.094,-0.78076 -0.0895,-0.34009 -0.2552,-0.56521 -0.16119,-0.22992 -0.39401,-0.34009 -0.22834,-0.11495 -0.50593,-0.11495 -0.27758,0 -0.5104,0.11495 -0.22834,0.11017 -0.394,0.34009 -0.16566,0.22512 -0.25968,0.56521 -0.0895,0.3353 -0.0895,0.78076 0,0.44547 0.0895,0.78555 0.0941,0.33529 0.25968,0.56521 0.16566,0.22512 0.394,0.34009 0.23282,0.11016 0.5104,0.11016 z"
       inkscape:connector-curvature="0" />
    <path
       id="path5165"
       style="font-style:normal;font-variant:normal;font-weight:normal;font-stretch:normal;font-size:medium;line-height:125%;font-family:Shruti;-inkscape-font-specification:Shruti;letter-spacing:0px;word-spacing:0px;fill:#333333;fill-opacity:1;stroke:none;stroke-width:1px;stroke-linecap:butt;stroke-linejoin:miter;stroke-opacity:1"
       d="m 254.25416,723.80455 q 0.26416,-0.34008 0.57756,-0.50294 0.31341,-0.16764 0.67607,-0.16764 0.43429,0 0.77009,0.17243 0.33579,0.17244 0.56413,0.49336 0.23282,0.31614 0.35371,0.7616 0.12088,0.44547 0.12088,0.99152 0,0.57001 -0.14327,1.03463 -0.1388,0.45983 -0.38952,0.78555 -0.24625,0.32571 -0.58653,0.50294 -0.34027,0.17722 -0.73874,0.17722 -0.36266,0 -0.66264,-0.11495 -0.2955,-0.11975 -0.54174,-0.36403 l 0,2.16504 -0.77457,0 0,-6.49036 0.77457,0 0,0.55563 z m 0,3.01767 q 0.51041,0.56999 1.15961,0.56999 0.24625,0 0.44772,-0.11495 0.20596,-0.11975 0.34476,-0.34967 0.14327,-0.22992 0.21937,-0.57479 0.0806,-0.34488 0.0806,-0.79992 0,-0.86219 -0.28207,-1.31244 -0.27759,-0.45025 -0.77905,-0.45025 -0.65368,0 -1.19094,0.8047 l 0,2.22733 z"
       inkscape:connector-curvature="0" />
    <path
       id="path5167"
       style="font-style:normal;font-variant:normal;font-weight:normal;font-stretch:normal;font-size:medium;line-height:125%;font-family:Shruti;-inkscape-font-specification:Shruti;letter-spacing:0px;word-spacing:0px;fill:#333333;fill-opacity:1;stroke:none;stroke-width:1px;stroke-linecap:butt;stroke-linejoin:miter;stroke-opacity:1"
       d="m 260.04773,728.05322 q -0.47906,0 -0.87307,-0.16285 -0.39399,-0.16765 -0.67606,-0.48379 -0.28207,-0.31613 -0.43878,-0.77117 -0.15222,-0.45983 -0.15222,-1.04421 0,-0.5748 0.14775,-1.02984 0.15223,-0.45504 0.42534,-0.77117 0.27311,-0.31614 0.6492,-0.48379 0.38057,-0.17243 0.83725,-0.17243 0.47459,0 0.85516,0.16764 0.38057,0.16764 0.6492,0.48379 0.26863,0.31613 0.41191,0.77117 0.14327,0.45504 0.14327,1.03463 l 0,0.20118 -3.30421,0 q 0.0269,0.40714 0.13431,0.70891 0.11193,0.30176 0.28655,0.49815 0.17461,0.19639 0.40295,0.29698 0.23281,0.0958 0.50145,0.0958 0.19252,0 0.38504,-0.0526 0.19253,-0.0575 0.34476,-0.16286 0.1567,-0.11017 0.25072,-0.26824 0.0985,-0.16286 0.10298,-0.36882 l 0.81934,0 q -0.0492,0.36403 -0.21491,0.64664 -0.16118,0.28261 -0.41191,0.4742 -0.25072,0.1916 -0.57756,0.29219 -0.32684,0.10064 -0.69846,0.10064 z m 1.15514,-2.91706 q -0.0492,-0.3353 -0.15671,-0.58438 -0.10745,-0.25386 -0.26863,-0.42151 -0.16119,-0.16765 -0.36714,-0.25386 -0.20596,-0.0863 -0.44325,-0.0863 -0.2373,0 -0.44325,0.0814 -0.20148,0.0814 -0.36266,0.24907 -0.16117,0.16766 -0.27311,0.42152 -0.11193,0.25387 -0.1567,0.59396 l 2.47145,0 z"
       inkscape:connector-curvature="0" />
    <path
       id="path5169"
       style="font-style:normal;font-variant:normal;font-weight:normal;font-stretch:normal;font-size:medium;line-height:125%;font-family:Shruti;-inkscape-font-specification:Shruti;letter-spacing:0px;word-spacing:0px;fill:#333333;fill-opacity:1;stroke:none;stroke-width:1px;stroke-linecap:butt;stroke-linejoin:miter;stroke-opacity:1"
       d="m 263.67432,723.84287 q 0.29102,-0.35924 0.61786,-0.53168 0.33131,-0.17722 0.6895,-0.17722 1.49092,0 1.49092,1.73395 l 0,3.07035 -0.78799,0 0,-3.02724 q 0,-0.57958 -0.19253,-0.82866 -0.18804,-0.25386 -0.61786,-0.25386 -0.59547,0 -1.1999,0.74723 l 0,3.36253 -0.77457,0 0,-4.68935 0.77457,0 0,0.59395 z"
       inkscape:connector-curvature="0" />
    <path
       inkscape:connector-curvature="0"
       id="path5173"
       style="font-style:normal;font-variant:normal;font-weight:bold;font-stretch:normal;font-size:11.22999954px;line-height:125%;font-family:Arial;-inkscape-font-specification:'Arial Bold';letter-spacing:0px;word-spacing:0px;fill:#333333;fill-opacity:1;stroke:none;stroke-width:1px;stroke-linecap:butt;stroke-linejoin:miter;stroke-opacity:1"
       d="m 316.97639,739.59637 -1.49149,0.1645 q -0.0548,-0.4606 -0.28514,-0.67994 -0.2303,-0.21933 -0.59769,-0.21933 -0.48802,0 -0.82799,0.43867 -0.33449,0.43867 -0.42222,1.82597 0.57576,-0.67994 1.43117,-0.67994 0.96507,0 1.6505,0.73477 0.69091,0.73478 0.69091,1.89726 0,1.23377 -0.72381,1.97951 -0.72381,0.74574 -1.85887,0.74574 -1.21732,0 -2.00144,-0.94314 -0.78413,-0.94863 -0.78413,-3.10361 0,-2.20981 0.81703,-3.18585 0.81702,-0.97605 2.12207,-0.97605 0.91573,0 1.51342,0.51544 0.60317,0.50996 0.76768,1.486 z m -3.49293,3.36133 q 0,0.75122 0.34546,1.16248 0.34545,0.40577 0.7896,0.40577 0.42771,0 0.71285,-0.33449 0.28513,-0.33449 0.28513,-1.09668 0,-0.78413 -0.30707,-1.14603 -0.30707,-0.36739 -0.76767,-0.36739 -0.44416,0 -0.75123,0.35094 -0.30707,0.34545 -0.30707,1.0254 z" />
    <path
       inkscape:connector-curvature="0"
       id="path5177"
       style="font-style:normal;font-variant:normal;font-weight:bold;font-stretch:normal;font-size:11.22999954px;line-height:125%;font-family:Arial;-inkscape-font-specification:'Arial Bold';letter-spacing:0px;word-spacing:0px;fill:#333333;fill-opacity:1;stroke:none;stroke-width:1px;stroke-linecap:butt;stroke-linejoin:miter;stroke-opacity:1"
       d="m 296.68035,716.05445 1.53535,-0.15901 q 0.0658,0.52092 0.38932,0.82799 0.32352,0.30159 0.74574,0.30159 0.48254,0 0.81703,-0.38933 0.33448,-0.3948 0.33448,-1.18441 0,-0.74026 -0.33448,-1.10765 -0.32901,-0.37287 -0.8609,-0.37287 -0.66349,0 -1.18989,0.58673 l -1.25022,-0.18096 0.78961,-4.18383 4.07417,0 0,1.44213 -2.90621,0 -0.24126,1.36537 q 0.51543,-0.25772 1.05281,-0.25772 1.02539,0 1.73824,0.74574 0.71284,0.74575 0.71284,1.93564 0,0.9925 -0.57576,1.77114 -0.78413,1.06378 -2.17691,1.06378 -1.11313,0 -1.815,-0.59769 -0.70188,-0.59769 -0.83896,-1.60664 z" />
    <path
       inkscape:connector-curvature="0"
       id="path5181"
       style="font-style:normal;font-variant:normal;font-weight:bold;font-stretch:normal;font-size:medium;line-height:125%;font-family:Arial;-inkscape-font-specification:'Arial Bold';letter-spacing:0px;word-spacing:0px;fill:#333333;fill-opacity:1;stroke:none;stroke-width:1px;stroke-linecap:butt;stroke-linejoin:miter;stroke-opacity:1"
       d="m 199.18093,745.55901 -1.54083,0 0,-5.80692 q -0.84445,0.78961 -1.99048,1.16797 l 0,-1.39827 q 0.60318,-0.1974 1.31054,-0.74574 0.70735,-0.55383 0.97056,-1.2886 l 1.25021,0 0,8.07156 z" />
    <path
       inkscape:connector-curvature="0"
       id="path5185"
       style="font-style:normal;font-variant:normal;font-weight:bold;font-stretch:normal;font-size:11.22999954px;line-height:125%;font-family:Arial;-inkscape-font-specification:'Arial Bold';letter-spacing:0px;word-spacing:0px;fill:#333333;fill-opacity:1;stroke:none;stroke-width:1px;stroke-linecap:butt;stroke-linejoin:miter;stroke-opacity:1"
       d="m 272.2502,702.90868 0,-1.6176 -3.29004,0 0,-1.34892 3.48744,-5.10504 1.29408,0 0,5.09956 0.99798,0 0,1.3544 -0.99798,0 0,1.6176 -1.49148,0 z m 0,-2.972 0,-2.74718 -1.84791,2.74718 1.84791,0 z" />
    <path
       inkscape:connector-curvature="0"
       id="path5189"
       style="font-style:normal;font-variant:normal;font-weight:bold;font-stretch:normal;font-size:11.22999954px;line-height:125%;font-family:Arial;-inkscape-font-specification:'Arial Bold';letter-spacing:0px;word-spacing:0px;fill:#333333;fill-opacity:1;stroke:none;stroke-width:1px;stroke-linecap:butt;stroke-linejoin:miter;stroke-opacity:1"
       d="m 217.03693,716.68046 0,1.43116 -5.40115,0 q 0.0877,-0.81154 0.52641,-1.53535 0.43867,-0.72929 1.73275,-1.93015 1.04185,-0.97057 1.27764,-1.31602 0.31803,-0.47705 0.31803,-0.94314 0,-0.51544 -0.27965,-0.78961 -0.27417,-0.27966 -0.76219,-0.27966 -0.48254,0 -0.76768,0.29062 -0.28513,0.29062 -0.329,0.96508 l -1.53535,-0.15353 q 0.13708,-1.27215 0.86089,-1.82597 0.72381,-0.55383 1.80952,-0.55383 1.1899,0 1.86984,0.64156 0.67994,0.64156 0.67994,1.59567 0,0.54285 -0.1974,1.03636 -0.19192,0.48802 -0.61414,1.0254 -0.27965,0.35642 -1.00895,1.02539 -0.72929,0.66898 -0.92669,0.88831 -0.19192,0.21934 -0.31255,0.42771 l 3.05973,0 z" />
    <path
       inkscape:connector-curvature="0"
       id="path5193"
       style="font-style:normal;font-variant:normal;font-weight:bold;font-stretch:normal;font-size:11.22999954px;line-height:125%;font-family:Arial;-inkscape-font-specification:'Arial Bold';letter-spacing:0px;word-spacing:0px;fill:#333333;fill-opacity:1;stroke:none;stroke-width:1px;stroke-linecap:butt;stroke-linejoin:miter;stroke-opacity:1"
       d="m 239.32419,700.89087 1.49148,-0.18095 q 0.0713,0.57028 0.38384,0.87186 0.31256,0.30159 0.75671,0.30159 0.47706,0 0.80058,-0.3619 0.329,-0.36191 0.329,-0.97605 0,-0.58124 -0.31255,-0.92121 -0.31256,-0.33997 -0.76219,-0.33997 -0.29611,0 -0.70736,0.11515 l 0.16998,-1.2557 q 0.62511,0.0164 0.95411,-0.26868 0.32901,-0.29062 0.32901,-0.76768 0,-0.40577 -0.24127,-0.64704 -0.24127,-0.24127 -0.64156,-0.24127 -0.3948,0 -0.67446,0.27417 -0.27965,0.27417 -0.33997,0.80058 l -1.4202,-0.24127 q 0.14805,-0.7293 0.44416,-1.16248 0.30158,-0.43868 0.83347,-0.68543 0.53738,-0.25224 1.20087,-0.25224 1.13506,0 1.82049,0.72381 0.56479,0.59221 0.56479,1.33795 0,1.0583 -1.157,1.68889 0.69091,0.14805 1.10216,0.66349 0.41674,0.51544 0.41674,1.24473 0,1.0583 -0.77316,1.80404 -0.77316,0.74574 -1.92467,0.74574 -1.0912,0 -1.80952,-0.62511 -0.71833,-0.63059 -0.83348,-1.64502 z" />
  </g>
</svg>
